<?xml version="1.0" encoding="UTF-8"?>
<svg id="Layer_1" xmlns="http://www.w3.org/2000/svg" viewBox="0 0 100 100">
  <defs>
    <style>
      .cls-1 {
        fill: #d33cc8;
      }
    </style>
  </defs>
  <g>
    <circle class="cls-1" cx="17.31" cy="17.31" r="17.31"/>
    <path class="cls-1" d="M38.53,8.08h53.39s0,84,0,84H7.92s0-53.39,0-53.39C4.88,37.34,2.18,35.35,0,32.9v67.1s99.84,0,99.84,0V.16s-67.1,0-67.1,0c2.45,2.18,4.44,4.88,5.79,7.92Z"/>
  </g>
  <g>
    <path class="cls-1" d="M47.17,87.28h18.08c4.61-2.85,8.88-6.24,12.76-10.13,3.46-3.46,6.53-7.23,9.17-11.27v-16.81c-6.71,18.11-21.53,32.32-40.02,38.21Z"/>
    <path class="cls-1" d="M12.79,75.06v7.6c9.34-.07,18.41-1.93,26.96-5.55,8.41-3.56,15.96-8.65,22.44-15.13,6.48-6.48,11.57-14.03,15.13-22.44,3.58-8.46,5.44-17.42,5.54-26.67h-7.6c-.44,34.19-28.25,61.9-62.47,62.18Z"/>
    <path class="cls-1" d="M12.79,53.37v7.66c5.1-.58,10.05-1.89,14.8-3.9,6.44-2.72,12.22-6.62,17.19-11.59,4.97-4.97,8.87-10.75,11.59-17.19,2.1-4.96,3.43-10.15,3.97-15.48h-7.65c-2.52,20.96-19.03,37.67-39.9,40.49Z"/>
  </g>
</svg>