<?xml version="1.0" encoding="UTF-8"?>
<svg id="Layer_2" xmlns="http://www.w3.org/2000/svg" viewBox="0 0 1000 1000">
  <defs>
    <style>
      .cls-1 {
        fill: #d33cc8;
      }
    </style>
  </defs>
  <g>
    <circle class="cls-1" cx="173.89" cy="173.09" r="173.09"/>
    <path class="cls-1" d="M386.09,80.82h533.89s0,839.97,0,839.97H80.01s0-533.89,0-533.89c-30.41-13.51-57.38-33.37-79.21-57.91v671.01s998.4,0,998.4,0V1.6s-671.01,0-671.01,0c24.53,21.84,44.39,48.8,57.91,79.21Z"/>
  </g>
  <g>
    <g>
      <path class="cls-1" d="M174.29,404.43c-8.13,0-16.16-.42-24.07-1.24v446.59h114.03v-463.46c-27.66,11.66-58.05,18.11-89.96,18.11Z"/>
      <path class="cls-1" d="M404.94,150.22c.71,7.4,1.09,14.89,1.09,22.47,0,32.52-6.71,63.47-18.8,91.56h462.55v-114.03h-444.84Z"/>
    </g>
    <g>
      <rect class="cls-1" x="349.75" y="349.75" width="500.03" height="114.03"/>
      <rect class="cls-1" x="156.74" y="542.75" width="500.03" height="114.03" transform="translate(1006.52 193) rotate(90)"/>
    </g>
    <rect class="cls-1" x="543.7" y="543.7" width="306.08" height="306.08"/>
  </g>
</svg>